<svg version="1" xmlns="http://www.w3.org/2000/svg" width="1493.333" height="1493.333" viewBox="0 0 1120.000000 1120.000000"><path d="M532.8 152.5c-.2.2-4.1.6-8.8.9-10.2.7-18.6 1.5-22 2.1-1.4.3-4.5.8-7 1.1-2.5.3-5.4.7-6.5.9-1.1.2-3.6.7-5.5 1-3.1.5-12.7 2.4-15.5 3.1-.5.1-2.3.5-4 .8-6.3 1.2-7.7 1.5-9.5 2.1-1 .3-2.7.8-3.7 1-6.4 1.3-37.3 11.1-42.8 13.5-1.1.5-6 2.5-11 4.5-31.7 12.8-63.4 30.8-91.6 52.1-5.3 4-10.2 7.9-11 8.6-.8.7-3 2.6-4.9 4.2-14.6 11.9-39.5 36.5-47.1 46.6-1.5 1.9-3.7 4.7-5 6.1-4.9 5.3-6.9 7.9-6.9 8.9 0 .6-.4 1-.8 1s-1.6 1.3-2.5 3c-1 1.6-2.3 3.5-3 4.2-2 2-10.8 15.3-18.3 27.5-6.2 10.1-19.2 35.5-24 46.8-2.6 6-10.5 27.4-10.9 29.5-.2.8-1 3.4-1.9 5.7-.8 2.4-1.3 4.3-1 4.3.2 0 0 .9-.6 2.1-.6 1.1-1.3 2.9-1.6 4-.2 1-.6 2.8-.9 3.9-1.2 4.8-1.6 6.6-2.1 9-.3 1.4-1 4.5-1.6 7-.5 2.5-1.2 5.7-1.4 7.1-.2 1.4-.8 4.7-1.4 7.2-.5 2.6-1.3 7.5-1.6 10.9-.3 3.5-.8 6.6-.9 6.9-.3.4-1.1 9.4-1.9 20.4-.3 3.4-1.4 4.3-5.3 4.2-13.8-.1-27 5.2-37.2 15.1-3.4 3.3-6.1 6.3-6.1 6.7 0 .4-.9 1.9-1.9 3.4-2.5 3.5-5.7 11.5-6.6 16.6-.4 2.2-.9 9.6-1 16.5-.2 6.9-.3 12.8-.4 13.2-.1.5-4.3 1.5-9.1 2.3-.3 0-1.1.4-1.7.8-.7.5-2.2 1-3.4 1.2-3.4.7-11.1 4.6-15.4 7.9-5.7 4.2-9.2 8.1-11.8 12.9-2.1 4-2.2 5.6-2.5 28.5l-.3 24.3-3.2 1.9c-11.2 6.8-22.8 17-29.2 25.6-1.1 1.5-2.4 3.2-3 3.8-.5.6-1.1 1.8-1.3 2.6-.2.8-.7 1.7-1.2 2-2.7 1.7-10.2 21-11.8 30.5-.9 5.1-.9 24.9 0 29.5 2.5 13.3 6.7 22.9 14.2 32.9 4.7 6.4 16.8 18.5 20.8 20.9 1.6.9 2.8 2 2.8 2.4 0 .4.7.8 1.5.8s1.5.4 1.5 1c0 .5.4 1 .9 1s2.5 1 4.4 2.2l3.5 2.3.4 21c.3 23.7.7 25.1 8.2 33 7.2 7.5 19.7 13.8 33.6 16.9l2.5.5.2 13.3c.2 16.7.7 19.6 4.9 28.5 6.1 12.7 17.9 23.1 31.4 27.5 6.1 1.9 8.8 2.1 44.4 2.2 33.3.1 38.8-.1 44.9-1.6 17.2-4.4 30.4-16.4 37-33.6l2.2-5.7.3-182.5c.2-179.6.2-182.6-1.8-189.7-1.9-6.9-7-17-9.4-18.5-.6-.4-.7-.8-.3-.8 2.1 0-12.2-11.2-17.8-13.9l-6.5-3.2.5-6.2c.6-7.7 1.5-16.4 2-19.7.4-2.5.9-5.6 2-12 .6-3.5 3.2-15.8 4.1-19.5.3-1.1.7-3 .9-4.1.3-1.2 1.2-3.8 2.1-5.9.8-2 1.3-3.9 1-4.2-.3-.3.1-1.8 1-3.4.8-1.6 1.2-2.9.9-2.9-.3 0 .1-1.3 1-3 .8-1.6 1.5-3.1 1.5-3.2-.6-1.7 12.7-32.8 14.5-34 .5-.4.6-.8.2-.8-.4 0 .4-2.1 1.9-4.8 9.3-16.3 11.9-20.7 12.6-21 .4-.2.8-.8.8-1.3 0-1.1 13.1-20.5 15.8-23.5 1-1 2.4-2.8 3.2-4 6-8.5 25.1-28.8 38.1-40.4 4-3.6 7.7-7 8.3-7.5 1.1-1.1 2.4-2 12.2-9.4 3.2-2.5 6.1-4.7 6.4-5 1.2-1.4 7-5.1 8-5.1.5 0 1-.4 1-.8s1.5-1.6 3.3-2.6c1.7-1 5.9-3.6 9.2-5.7 9.7-6.1 27.2-15.3 40-20.8 2.8-1.2 5.9-2.6 7-3.1 3-1.5 20.7-8 22.8-8.5.9-.2 2.1-.6 2.5-.9.5-.3 1.9-.7 3.3-1 1.3-.3 7.1-1.9 12.9-3.6 5.8-1.7 12.1-3.3 14-3.6 1.9-.3 4.9-.9 6.5-1.4 2.8-.8 11.5-2.3 19.5-3.4 1.9-.3 5.3-.8 7.5-1.1 2.2-.3 7.4-.8 11.5-1.1 4.1-.3 8.9-.7 10.5-.9 3.6-.5 35.8-.5 43.3 0 4.6.3 11.3.9 21.7 2 3.6.4 9 1.3 16.5 2.6 5.7.9 7.3 1.3 15 3 4.3.9 9.3 1.9 11.5 2.2.6.1 1.2.4 1.5.8.3.3 2.8 1.1 5.5 1.7 6 1.5 6.1 1.5 15.5 4.6 8.1 2.7 13.8 4.7 18.5 6.7 1.7.7 3.2 1.3 3.5 1.4.5.1 2.6 1 14.4 6.2 3.4 1.5 6.6 3 7.1 3.4.6.4 5.4 2.9 10.7 5.7 5.3 2.8 11.7 6.4 14.2 8.1 2.4 1.7 4.7 3.1 5.1 3.1.7 0 15.5 10 17.3 11.7.7.7 2.6 2 4.2 3 1.7.9 3 2.1 3 2.5 0 .4.4.8 1 .8.5 0 2 .9 3.2 1.9 4.6 4 6.7 5.7 11.4 9.6 12.5 10.3 35.4 34.6 45.6 48.2 2.4 3.2 4.6 6 4.9 6.3 1.3 1.2 12.9 19 12.9 20 0 .5.4 1 .9 1s1.1.8 1.4 1.7c.4 1 2 4 3.6 6.8 11.2 18.5 27.8 59.4 30.6 75.2.3 1.8 1 4.5 1.6 6 .6 1.5 1 3 1 3.3 0 .3.2 1.4.4 2.5.3 1.1.6 3.3.9 5 .2 1.6.7 4.3 1 6 .6 3 1.2 7.2 2.1 13 .5 3.5 1.5 14.8 1.9 21.8.3 4.5.1 4.8-2.9 6.3-1.8.8-4.7 2.8-6.5 4.4-1.8 1.6-3.6 3.1-3.9 3.2-1.2.6-8.1 9.5-8.1 10.6 0 .6-.5 1.2-1.1 1.4-.5.2-2.3 4.2-3.9 8.8l-2.9 8.5V740c0 198.7-.3 186 6 198.5 6.5 13 18.3 22.2 33.5 26.3 6.1 1.6 10.9 1.8 42.9 1.7 19.8-.1 38-.5 40.5-.9 20.1-3.4 37-20.1 41.6-41.1.3-1.7.7-8.9.7-16.1l.1-13.1 9.1-2.8c4.9-1.6 9.2-2.9 9.5-3 .7-.1 8-4.2 10.4-5.8 5.5-3.5 15.2-14.7 12.9-14.7-.4 0-.1-.5.7-1 1.2-.8 1.5-4.5 1.8-21.2.3-21.3.6-24.8 2.3-24.8 2.7 0 16.5-10.8 26.5-20.7 3.8-3.7 14.8-19.3 15-21.1 0-.4.8-2.5 1.8-4.7s1.9-4.5 2-5c.1-.6.5-1.9.9-3 2.3-7.1 3.2-27.4 1.6-35.5-.6-3-1.2-6.2-1.3-7-.3-2.8-2.8-9.5-5.8-16-7-15.1-18.7-28.8-33.1-38.8-4.1-2.8-8-5.2-8.6-5.2-.8 0-1.1-7-1.2-22.3 0-12.2-.3-23.3-.5-24.7-.2-1.4-.5-3.1-.6-3.8-.1-.6-.5-1.2-1-1.2s-.7-.4-.4-.8c.7-1.2-6.4-9.7-11.4-13.4-6.6-5-15.6-8.8-26.9-11.6l-3.4-.8-.3-12.9c-.2-12.1-.6-17.1-2.1-22-1-3.7-5.2-12.4-7-14.6-3-3.9-13.5-13.9-14.4-13.9-.5 0-2.7-1.1-4.9-2.5s-4-2.2-4-1.9c0 .4-.6.2-1.2-.4-2.1-1.7-12.5-3.4-21.4-3.5-4.6-.1-8.5-.4-8.5-.7-.4-1.6-.8-5.3-1.3-11.5-.3-3.9-.8-8.4-1-10-.3-1.7-1-6.6-1.6-11.1-1.1-8.3-1.5-10.8-2.6-15.9-.4-1.7-.8-3.9-1-5-.3-1.8-1-4.9-1.8-8-.1-.6-.9-3.7-1.6-7-1.6-6.9-1.5-6.5-2.3-8.5-.3-.8-1.5-4.9-2.7-9-1.9-6.7-5-16-6.7-20-.3-.8-.7-1.8-.8-2.3-.2-.4-.4-.9-.5-1.2-.1-.3-.3-.8-.4-1.3-.1-.4-1-2.4-1.9-4.6-.9-2.1-1.7-4-1.7-4.1 0-.2-1.4-3.4-3.2-7.2-1.7-3.7-3.2-7-3.3-7.3-.4-1.7-6.1-13-7.7-15.3-1.1-1.5-1.6-2.7-1.2-2.7.3 0 .1-.6-.5-1.3-.6-.8-2.5-4-4.2-7.3-1.7-3.2-3.7-6.6-4.4-7.4-.7-.8-2-2.9-2.9-4.5-.9-1.7-2.4-4.2-3.4-5.6-5.9-9-9.4-14-12.8-18.6-2.1-2.8-4.8-6.4-5.9-7.9-2.2-3-6.4-8.2-8-10-.5-.6-4.1-4.8-8-9.3-8.3-9.7-30.3-31.5-39.5-39-3.6-2.9-7-5.8-7.5-6.4-.6-.7-1.8-1.7-2.6-2.2-.9-.6-6.1-4.4-11.5-8.5s-14.6-10.5-20.4-14.2c-5.8-3.7-11-7.1-11.6-7.5-1.2-1-2.5-1.7-14.5-8.4-13.3-7.4-48.8-23.9-51.3-23.9-.3 0-1.7-.5-3.3-1.2-1.5-.6-3.2-1.2-3.8-1.4-4.5-1.3-14.4-4.8-15.9-5.6-1-.5-3-1.2-4.5-1.4-1.4-.3-4.6-1.1-7.1-1.9-4.5-1.5-26.9-6.9-32.5-8-11.8-2.2-25.9-4.5-31-5-3.3-.4-7.3-.9-9-1.2-7.2-1.2-67.7-2.8-68.7-1.8z"/><path d="M327 593.2c-3.2 1.6-5.1 3.5-6.7 6.6l-2.2 4.3.1 146.7.1 146.7 2.1 3.7c2.9 5.1 8.4 8 14.4 7.7 5.8-.4 9.2-2.2 12.3-6.8l2.4-3.5.3-147.3c.2-145.3.2-147.4-1.8-151.2-4.1-8.2-13-11-21-6.9zM520.2 591.7c-3.5.7-9.8 7.5-10.6 11.3-1.1 5.7-.7 291.1.4 295.2.7 2.3 2.6 5 5.1 7.1 3.6 3.1 4.6 3.5 10 3.5 5.6 0 6.2-.3 10.7-4.3l4.7-4.3.3-148.1c.2-144.5.2-148.3-1.7-151.9-3.7-7.1-10.5-10.1-18.9-8.5zM581.9 592.7c-4.6 1.9-8.9 8.3-9 13.8-.5 22.6-.1 287.9.5 290.6 1.7 9.1 12.7 14.4 21.9 10.5 3.2-1.3 7.8-6.3 8.5-9.4.8-3.3.7-294.7-.1-296.7-.5-1.1-.8-2.1-.7-2.3.3-.7-5.2-5.2-7.8-6.6-3.5-1.7-8.8-1.7-13.3.1zM773 592.7c-4.4 2.2-5.3 3.1-7.6 7.3-1.7 3.3-1.8 10.5-1.8 149.8-.1 137.4 0 146.6 1.6 150 5 10 16.2 12.4 25.2 5.2 5.3-4.3 5 4.6 5.1-153.5.1-100-.2-147-.9-149-1.7-4.7-4-7.4-8.2-9.5-4.7-2.4-8.8-2.5-13.4-.3zM390.3 625.1c-3.1 1.5-4.8 3.3-6.3 6.5l-2.2 4.4v114.3c-.1 107.8 0 114.6 1.7 118.1 1 2.1 3.4 4.8 5.4 6.1 3.7 2.4 11.7 3.9 12.7 2.3.3-.4.9-.6 1.3-.3 1.5.9 8.2-6 9.4-9.7 1-2.8 1.3-29.4 1.2-118V634.5l-2.3-3.7c-4.6-7.4-12.9-9.7-20.9-5.7zM707.7 625.2c-2.1 1.3-4.6 4-5.7 6.3-1.8 3.7-2 6.2-2.1 44 0 22 0 41.3.1 43 .1 1.6.2 3.7.1 4.5v14c-.1.8-.1 3.1 0 5v19c-.1.8-.1 3.1 0 5v19c-.1.8-.1 3.1 0 5v19c-.1.8-.1 3.1 0 5v5c-.2 14.6.1 43.3.5 45.5 2.6 14.5 23 17.3 29.3 4.1 1.9-4 2-7.6 1.9-117.5 0-82.7-.3-114.5-1.2-117.4-2.6-9-14.6-13.5-22.9-8.5zM452.1 658.1c-6.9 4.9-6.6.5-6.6 93 0 93.2-.6 85.7 7.1 91.5 2.8 2.2 4.7 2.8 8.3 2.8 4.7-.1 11.1-2.6 11.1-4.4 0-.6.6-1 1.4-1 3.7 0 3.9-6.7 3.9-91 0-79.9 0-81.8-2-85.6-4.2-8.3-15.6-10.9-23.2-5.3zM643.1 657.8c-7 5.4-6.5-.3-6.7 91.7-.1 88.6-.2 86.7 4.6 91.5 8.3 8.2 23 4.4 26.5-6.9.4-1.3.7-39.4.7-84.7 0-79.7 0-82.5-1.9-86.1-4.1-8-16.4-10.9-23.2-5.5z"/></svg>