<svg viewBox="0 0 1440 78" xmlns="http://www.w3.org/2000/svg" preserveAspectRatio="none"><path d="M0-909h1440V63.142c0 5.522-4.477 10-10 10a10 10 0 0 1-3.765-.736l-65.158-26.481a100 100 0 0 0-70.59-1.778l-58.29 20.336a100 100 0 0 1-75.815-4.076l-94.4-44.799a100 100 0 0 0-90.443 2.381l-67.247 36.367a100 100 0 0 1-88.968 3.066l-94.187-42.836a100 100 0 0 0-89.47 3.34l-60.722 33.288a100 100 0 0 1-97.35-.674L423.16 21.977a100 100 0 0 0-99.111.315l-57.52 33.06a100 100 0 0 1-82.38 7.856L132.35 45.376a100 100 0 0 0-77.232 5.094L14.468 70.773A10 10 0 0 1 0 61.827V-909z" fill="#3D4EC9" fill-rule="nonzero"/></svg>