<svg viewBox="0 0 1440 78" preserveAspectRatio="none" xmlns="http://www.w3.org/2000/svg"><path d="M0-332h1440V66.17c0 5.523-4.477 10-10 10a10 10 0 0 1-1.665-.14l-86.751-14.645a100 100 0 0 0-30.99-.362L1210.368 75.55a100 100 0 0 1-33.684-.855l-139.84-27.567a100 100 0 0 0-41.26.543L880.74 73.47a100 100 0 0 1-40.482.693L696.029 46.915a100 100 0 0 0-40.767.757L544.652 72.86a100 100 0 0 1-45.103-.161L396.586 48.476a100 100 0 0 0-46.123.077L245.65 73.577a100 100 0 0 1-37.377 1.727l-98.278-14.052a100 100 0 0 0-34.47 1.078L12.031 75.504C6.624 76.626 1.33 73.15.209 67.744A10 10 0 0 1 0 65.712V-332z" fill="#3D4EC9" fill-rule="nonzero"/></svg>