<svg width="70" height="51" xmlns="http://www.w3.org/2000/svg"><g fill="none" fill-rule="evenodd"><g><path d="M59.66 23.864C59.66 10.9 48.53.398 34.8.398 21.068.398 9.942 10.9 9.942 23.864l3.67-.098c0-11.1 9.485-20.099 21.188-20.099 11.702 0 21.188 8.998 21.188 20.098l3.67.099z" fill="#1D5083"/><path d="M35.199 1.603c13.3 0 24.161 9.86 24.825 22.26h.033C60.057 10.9 48.923.397 35.199.397S10.34 10.9 10.34 23.864h.032C11.038 11.464 21.9 1.603 35.2 1.603z" fill="#5C9DE0" opacity=".5"/><path d="M60.057 24.261l-4.494-.116v-.383c0-10.87-9.314-19.713-20.762-19.713S14.04 12.893 14.04 23.762v.379l-4.494.116v-.401C9.545 10.703 20.875 0 34.8 0c13.924 0 25.257 10.703 25.257 23.86v.401zm-3.67-.878l2.84.075C59 10.918 48.13.781 34.8.781c-13.33 0-24.196 10.137-24.424 22.677l2.84-.075C13.436 12.258 23.032 3.269 34.8 3.269c11.77 0 21.372 8.989 21.587 20.114z" fill="#14395F" fill-rule="nonzero"/><path d="M5.17 42.16C2.315 42.16 0 39.932 0 37.187c0-2.746 2.315-4.972 5.17-4.972" fill="#1D5083"/><path d="M5.568 42.557a5.568 5.568 0 1 1 0-11.137v1.12a4.449 4.449 0 1 0 0 8.896v1.12z" fill="#14395F"/><path d="M6.761 46.136c-1.75 0-3.181-.806-3.181-1.8V29.642c0-.99 1.431-1.8 3.181-1.8" fill="#3175B9"/><path d="M7.16 46.534c-2.233 0-3.978-1.041-3.978-2.367V29.412c0-1.327 1.749-2.367 3.977-2.367v1.12c-1.61 0-2.813.658-2.813 1.247v14.756c0 .59 1.205 1.247 2.813 1.247v1.12z" fill="#14395F"/><rect fill="#5C9DE0" x="6.364" y="23.068" width="9.148" height="27.443" rx="4.574"/><path d="M8.633 49.631v-22.06a2.72 2.72 0 0 1 2.722-2.702h3.856c.1 0 .2.006.3.017a2.73 2.73 0 0 0-2.569-1.818H9.086a2.72 2.72 0 0 0-2.722 2.702v22.06a2.717 2.717 0 0 0 2.422 2.681c-.1-.282-.152-.58-.153-.88z" fill="#2A649E" opacity=".6"/><path d="M13.047 50.91H9.226c-1.799-.003-3.257-1.444-3.26-3.223V25.895c.002-1.78 1.46-3.223 3.26-3.225h3.821c1.8.002 3.258 1.445 3.26 3.225v21.792c-.003 1.78-1.461 3.22-3.26 3.222zM9.226 23.782a2.127 2.127 0 0 0-2.136 2.113v21.791A2.127 2.127 0 0 0 9.226 49.8h3.821a2.127 2.127 0 0 0 2.136-2.113V25.895a2.127 2.127 0 0 0-2.136-2.113l-3.821.001z" fill="#14395F" fill-rule="nonzero"/><path d="M64.83 42.16c2.855 0 5.17-2.227 5.17-4.972 0-2.746-2.315-4.972-5.17-4.972" fill="#1D5083"/><path d="M64.432 42.557a5.568 5.568 0 1 0 0-11.137v1.12a4.449 4.449 0 1 1 0 8.896v1.12z" fill="#14395F"/><path d="M62.84 46.136c1.751 0 3.183-.806 3.183-1.8V29.642c0-.99-1.432-1.8-3.182-1.8" fill="#3175B9"/><path d="M62.84 46.534c2.233 0 3.978-1.041 3.978-2.367V29.412c0-1.327-1.749-2.367-3.977-2.367v1.12c1.61 0 2.813.658 2.813 1.247v14.756c0 .59-1.205 1.247-2.813 1.247v1.12z" fill="#14395F"/><rect fill="#5C9DE0" transform="rotate(180 58.665 36.79)" x="54.091" y="23.068" width="9.148" height="27.443" rx="4.574"/><path d="M61.367 49.631v-22.06a2.72 2.72 0 0 0-2.722-2.702h-3.856c-.1 0-.2.006-.3.017a2.73 2.73 0 0 1 2.569-1.818h3.856a2.72 2.72 0 0 1 2.722 2.702v22.06a2.717 2.717 0 0 1-2.422 2.681c.1-.282.152-.58.153-.88z" fill="#2A649E" opacity=".6"/><path d="M53.693 47.687V25.895c.002-1.78 1.46-3.223 3.26-3.225h3.821c1.8.002 3.258 1.445 3.26 3.225v21.792c-.003 1.78-1.461 3.22-3.26 3.222h-3.821c-1.799-.002-3.257-1.443-3.26-3.222zm3.26-23.904a2.127 2.127 0 0 0-2.136 2.113v21.791a2.127 2.127 0 0 0 2.136 2.113h3.821a2.127 2.127 0 0 0 2.136-2.113V25.895a2.127 2.127 0 0 0-2.136-2.113l-3.821.001z" fill="#14395F" fill-rule="nonzero"/><circle fill="#14395F" cx="57.869" cy="47.131" r="1.79"/><circle fill="#609DD9" cx="57.869" cy="47.131" r="1"/></g><g transform="translate(19.886 27.443)" fill="#3DC9A4" fill-rule="nonzero"><rect width="1.989" height="19.886" rx=".994"/><rect x="3.977" y="1.989" width="1.989" height="15.909" rx=".994"/><rect x="7.955" y="3.977" width="1.989" height="11.932" rx=".994"/><rect x="11.932" width="1.989" height="19.886" rx=".994"/><rect x="15.909" width="1.989" height="19.886" rx=".994"/><rect x="19.886" y="3.977" width="1.989" height="11.932" rx=".994"/><rect x="23.864" y="1.989" width="1.989" height="15.909" rx=".994"/><rect x="27.841" width="1.989" height="19.886" rx=".994"/></g></g></svg>