<svg width="40" height="40" xmlns="http://www.w3.org/2000/svg"><g fill-rule="nonzero" fill="none"><path fill="#5A90CA" d="M0 0h40v40H0z"/><path d="M31.046 14.66a12.218 12.218 0 0 1 1.22 5.34c0 6.775-5.491 12.267-12.266 12.267S7.733 26.775 7.733 20c0-1.914.439-3.726 1.22-5.34a.102.102 0 0 0 .053.027c.49.18.699.63.699.63s.146.398.57 2.02c.426 1.621 1.438 1.815 1.438 1.815s1.24.28 2.669.28c1.43 0 2.284-.06 3.2-.476.915-.416 1.315-1.576 1.315-1.576s.462-.999.78-1.941c.047-.143.173-.24.323-.303.15.062.276.16.324.303.317.942.779 1.941.779 1.941s.4 1.16 1.315 1.576c.916.416 1.77.475 3.2.475 1.43 0 2.669-.279 2.669-.279s1.012-.194 1.437-1.815c.425-1.622.571-2.02.571-2.02s.209-.45.699-.63a.102.102 0 0 0 .052-.027zm-.795-1.4c-2.605-.293-6.915-.261-10.048.523a4.036 4.036 0 0 1-.203.038 4.036 4.036 0 0 1-.203-.038c-3.133-.784-7.443-.816-10.048-.523A12.256 12.256 0 0 1 20 7.733c4.285 0 8.057 2.198 10.25 5.527zM20 33.333c7.364 0 13.333-5.97 13.333-13.333 0-7.364-5.97-13.333-13.333-13.333-7.364 0-13.333 5.97-13.333 13.333 0 7.364 5.97 13.333 13.333 13.333zm-1.047-7.466h3.189c.879 0 1.591-.723 1.591-1.595v-.539H24.8V24.8c0 1.067-1.067 2.133-2.133 2.133H15.2v-1.066h3.753z" fill="#FFF"/></g></svg>