<svg width="15" height="15" xmlns="http://www.w3.org/2000/svg"><g fill="none" fill-rule="evenodd"><path d="M0 0h15v15H0z"/><path d="M7.5 0C3.375 0 0 3.375 0 7.5S3.375 15 7.5 15 15 11.625 15 7.5 11.662 0 7.5 0m3.45 10.838c-.15.225-.412.3-.637.15-1.763-1.088-3.976-1.313-6.6-.713-.263.075-.488-.113-.563-.338-.075-.262.113-.487.337-.562 2.85-.637 5.325-.375 7.275.825.263.113.3.413.188.638m.9-2.063c-.188.262-.525.375-.787.188C9.037 7.725 5.963 7.35 3.6 8.1c-.3.075-.638-.075-.712-.375-.075-.3.075-.637.375-.712C6 6.188 9.375 6.6 11.7 8.024c.225.112.338.487.15.75m.075-2.1c-2.4-1.425-6.413-1.575-8.7-.862a.704.704 0 0 1-.863-.45.704.704 0 0 1 .45-.863c2.663-.788 7.05-.638 9.825 1.013.338.187.45.637.263.974-.188.263-.638.375-.975.188" fill="#21D760"/></g></svg>